<svg xmlns="http://www.w3.org/2000/svg" viewBox="0 0 317.18 317.19"><defs><style>.cls-1{fill:#fff;}.cls-1,.cls-2,.cls-3{stroke:#9d9d9d;stroke-miterlimit:10;stroke-width:0.25px;}.cls-2{fill:#f92672;}.cls-3{fill:none;}</style></defs><g id="Layer_2" data-name="Layer 2"><g id="Layer_1-2" data-name="Layer 1"><rect class="cls-1" x="133.03" y="0.13" width="51.11" height="10.23"/><rect class="cls-1" x="112.58" y="10.36" width="20.45" height="10.22"/><rect class="cls-1" x="184.14" y="10.36" width="20.45" height="10.22"/><rect class="cls-1" x="102.35" y="20.58" width="10.23" height="10.22"/><rect class="cls-1" x="204.59" y="20.58" width="10.23" height="10.22"/><rect class="cls-1" x="92.13" y="30.8" width="10.22" height="10.23"/><rect class="cls-1" x="214.82" y="30.8" width="10.22" height="10.23"/><rect class="cls-1" x="81.91" y="41.03" width="10.22" height="30.67"/><rect class="cls-1" x="225.04" y="41.03" width="10.22" height="30.67"/><rect class="cls-1" x="71.68" y="71.7" width="10.23" height="61.34"/><rect class="cls-2" x="61.46" y="81.92" width="10.22" height="51.12"/><rect class="cls-2" x="245.49" y="81.92" width="10.22" height="51.12"/><rect class="cls-1" x="51.24" y="92.15" width="10.22" height="30.67"/><rect class="cls-1" x="255.71" y="92.15" width="10.22" height="30.67"/><rect class="cls-1" x="235.26" y="71.7" width="10.23" height="61.34"/><rect class="cls-3" x="296.6" y="173.93" width="0.01" height="0.01"/><path class="cls-1" d="M296.61,173.93V163.71h10.22V143.27h10.22V92.15H306.83V81.92H296.61V61.48H286.38V71.7H276.16v30.66h10.22V133H276.16v10.23H225V71.7H214.82V41H204.59V30.8H184.14V20.58H133V30.8H112.58V41H102.35V71.7H92.13v71.57H41V133H30.79V102.36H41V71.7H30.79V61.48H20.57V81.92H10.34V92.15H.12v51.12H10.34v20.44H20.57v10.22H61.46v10.23H41v10.22H20.57v10.23H10.34v10.22H.12v40.9H10.34V266H20.57v10.22H30.79V255.73H20.57V235.28H30.79V225.05H41V214.83H61.46V204.61H81.91v20.44H71.68v10.23H61.46V266H71.68V286.4H81.91v10.21h20.44v10.23H122.8V296.61H112.58V286.4H102.35V276.17H92.13V245.49h10.22V235.28h10.23V214.83H122.8v20.45H112.58v40.89H122.8v20.44H133v10.23h10.23v10.23h10.21V296.61H143.26V235.28h10.21V214.83H163.7v20.45h10.22v61.33H163.7v20.46h10.22V306.84h10.22V296.61h10.24V276.17h10.21V235.28H194.38V214.83h10.21v20.45h10.23v10.21H225v30.68H214.82V286.4H204.59v10.21H194.38v10.23h20.44V296.61h20.44V286.4h10.23V266h10.22V235.28H245.49V225.05H235.26V204.61h20.45v10.22h20.45v10.22h10.22v10.23h10.23v20.45H286.38v20.44h10.23V266h10.22V255.73h10.22v-40.9H306.83V204.61H296.61V194.38H276.16V184.16H255.71V173.93ZM143.26,133H133V112.59h10.23Zm40.88,0H173.92V112.59h10.22Z"/></g></g></svg>